<?xml version="1.0" standalone="no"?><!DOCTYPE svg PUBLIC "-//W3C//DTD SVG 1.1//EN" "http://www.w3.org/Graphics/SVG/1.1/DTD/svg11.dtd"><svg t="1637753972555" class="icon" viewBox="0 0 1333 1024" version="1.1" xmlns="http://www.w3.org/2000/svg" p-id="2423" xmlns:xlink="http://www.w3.org/1999/xlink" width="260.3515625" height="200"><defs><style type="text/css"></style></defs><path d="M1102.502 907.508h-941.859c-24.402 0-44.149-20.538-44.149-45.99s19.748-45.99 44.149-45.99h941.859c24.402 0 44.149 20.538 44.149 45.99s-19.748 45.99-44.149 45.99zM1102.502 557.99h-941.859c-24.402 0-44.149-20.538-44.149-45.99s19.748-45.99 44.149-45.99h941.859c24.402 0 44.149 20.538 44.149 45.99s-19.748 45.99-44.149 45.99zM1102.502 208.47h-941.859c-24.402 0-44.149-20.539-44.149-45.99s19.748-45.99 44.149-45.99h941.859c24.402 0 44.149 20.538 44.149 45.99s-19.748 45.99-44.149 45.99z" fill="#303030" p-id="2424"></path></svg>