<?xml version="1.0" standalone="no"?><!DOCTYPE svg PUBLIC "-//W3C//DTD SVG 1.1//EN" "http://www.w3.org/Graphics/SVG/1.1/DTD/svg11.dtd"><svg t="1628498193638" class="icon" viewBox="0 0 1024 1024" version="1.1" xmlns="http://www.w3.org/2000/svg" p-id="2731" xmlns:xlink="http://www.w3.org/1999/xlink" width="200" height="200"><defs><style type="text/css"></style></defs><path d="M965.632 936.96c4.096 4.096 6.144 9.216 6.144 14.336s-2.048 10.24-6.144 14.336-9.216 6.144-14.336 6.144-10.24-2.048-14.336-6.144L512 540.672 86.016 965.632c-8.192 8.192-20.48 8.192-28.672 0-4.096-4.096-6.144-9.216-6.144-14.336s2.048-10.24 6.144-14.336L482.304 512 57.344 86.016C53.248 81.92 51.2 76.8 51.2 71.68s2.048-10.24 6.144-14.336c8.192-8.192 20.48-8.192 28.672 0L512 482.304 936.96 57.344c8.192-8.192 20.48-8.192 28.672 0 4.096 4.096 6.144 9.216 6.144 14.336s-2.048 10.24-6.144 14.336L540.672 512l424.96 424.96z" p-id="2732" fill="#5d2ce4"></path></svg>