<?xml version="1.0" standalone="no"?><!DOCTYPE svg PUBLIC "-//W3C//DTD SVG 1.1//EN" "http://www.w3.org/Graphics/SVG/1.1/DTD/svg11.dtd"><svg t="1628498181383" class="icon" viewBox="0 0 1024 1024" version="1.1" xmlns="http://www.w3.org/2000/svg" p-id="2536" xmlns:xlink="http://www.w3.org/1999/xlink" width="200" height="200"><defs><style type="text/css"></style></defs><path d="M972.8 512c0 11.264-9.216 20.48-20.48 20.48H71.68c-11.264 0-20.48-9.216-20.48-20.48s9.216-20.48 20.48-20.48h880.64c11.264 0 20.48 9.216 20.48 20.48zM71.68 286.72h880.64c11.264 0 20.48-9.216 20.48-20.48s-9.216-20.48-20.48-20.48H71.68c-11.264 0-20.48 9.216-20.48 20.48s9.216 20.48 20.48 20.48z m880.64 450.56H71.68c-11.264 0-20.48 9.216-20.48 20.48s9.216 20.48 20.48 20.48h880.64c11.264 0 20.48-9.216 20.48-20.48s-9.216-20.48-20.48-20.48z" p-id="2537" fill="#5d2ce4"></path></svg>