<?xml version="1.0" standalone="no"?><!DOCTYPE svg PUBLIC "-//W3C//DTD SVG 1.1//EN" "http://www.w3.org/Graphics/SVG/1.1/DTD/svg11.dtd"><svg t="1637725704142" class="icon" viewBox="0 0 1024 1024" version="1.1" xmlns="http://www.w3.org/2000/svg" p-id="938" xmlns:xlink="http://www.w3.org/1999/xlink" width="200" height="200"><defs><style type="text/css"></style></defs><path d="M269.984323 407.981253c85.14198 124.436687 219.017051 254.717414 343.453738 333.306828 19.533576-15.623758 51.479273-45.23701 95.831919-88.829414a34.133333 34.133333 0 0 1 37.174303-7.111111l196.659717 82.799191a34.133333 34.133333 0 0 1 18.313051 44.456081l-78.796283 191.363879c-6.547394 0-13.09996 0-13.09996-6.547394v6.547394C476.558222 852.62998 168.225616 547.902061 56.888889 161.486869a33.559273 33.559273 0 0 1 21.121293-31.164768l177.508848-70.852525a34.133333 34.133333 0 0 1 44.109576 18.46303L381.248646 271.773737a34.133333 34.133333 0 0 1-10.322747 40.049778c-51.789576 40.841051-85.436768 72.890182-100.941576 96.152566z" p-id="939" fill="#ffffff"></path></svg>